<svg width="1916" height="73" viewBox="0 0 1916 73" fill="none" xmlns="http://www.w3.org/2000/svg">
<path d="M1867.52 4.56353C1867.87 4.02264 1871.59 4.13746 1871.04 3.4209C1866.93 2.92696 1864.61 2.08689 1863.99 0.912919C1854.55 1.10771 1847.64 0.257404 1835.79 0C1828.1 2.05402 1810.55 -0.219238 1802.89 0.683416C1806.29 0.78429 1808.25 1.16693 1808.76 1.82435C1805.25 2.51308 1799.7 2.80362 1797.02 3.65062L1798.78 3.91833L1798.19 4.33403C1799.37 4.33403 1800.54 4.33403 1801.71 4.33403C1801.21 5.1932 1805.39 5.13927 1806.41 5.70277C1818.56 3.98443 1817.98 8.64552 1805.24 8.21245C1803.5 8.8664 1802.83 9.72562 1800.54 10.2665C1804.28 11.1883 1802.16 11.8613 1804.07 13.004C1810.03 13.2475 1808.95 12.1257 1811.11 11.6353C1812.35 12.3431 1810.85 13.0874 1814.64 13.6857C1819.19 13.8092 1820.38 13.2787 1825.21 13.4596C1824.23 14.7101 1820.46 15.4251 1816.99 16.1973L1818.75 16.3086L1818.16 16.6529C1821.99 17.0269 1816.01 17.8895 1819.34 18.2495C1816.35 18.2773 1813.29 18.2913 1813.47 18.9331C1813.94 19.9053 1819.45 19.9001 1819.34 20.9889C1816.22 21.1402 1818.02 22.2514 1813.47 22.1262C1811.67 21.7123 1809.23 21.4271 1809.94 20.5296C1807.2 20.4549 1805.09 20.2531 1802.89 20.0757L1802.3 20.4148C1801.5 20.0791 1801.27 19.8949 1799.95 19.5036L1796.5 19.9227C1796.06 19.9731 1795.63 20.0236 1795.25 20.0757L1795.84 19.8479C1795.45 19.8479 1795.06 19.8479 1794.67 19.8479C1792.47 19.4375 1793.26 18.446 1789.96 18.2512C1781.88 19.6495 1788.41 21.1366 1781.75 22.5854C1774.15 21.1175 1783.54 19.9714 1779.39 18.4792L1777.63 18.3677L1778.23 18.0217C1771.03 17.7695 1769.63 18.6409 1764.12 18.7087C1763.01 18.2374 1758.07 18.5173 1758.24 17.7956C1761.63 17.3886 1761.6 16.3189 1762.94 15.5154C1751.05 16.8111 1741 15.7119 1725.34 15.5154C1729.09 14.7606 1723.59 14.5154 1721.82 14.1466C1723.73 13.7553 1725.38 13.3171 1725.34 12.5484C1716.69 11.4109 1711.95 8.40899 1714.78 6.3915C1709.36 5.83495 1709.48 6.39143 1704.19 6.84711C1710.32 7.71498 1703 9.35683 1701.85 10.2699C1695.99 10.0369 1696.54 8.56377 1687.75 8.90118C1686.8 10.0091 1683.27 10.6195 1676.01 10.496C1675.15 8.78116 1663.18 7.07493 1671.3 5.70617C1668.14 4.20696 1659.84 5.07144 1654.85 3.88182C1650.96 4.64533 1643.32 4.68358 1638.4 5.25056C1641.37 7.50111 1632.75 7.49776 1627.82 8.21606L1629.59 8.33071L1629 8.67337C1634.38 9.0073 1628.71 10.8022 1625.48 10.9552C1626.79 13.7936 1617.83 14.6388 1607.85 15.2876C1595.4 14.9432 1586.33 12.4875 1574.96 12.0945C1567.92 11.8493 1562.86 12.7762 1554.98 12.5484C1555.77 11.1066 1548.91 11.1448 1547.93 10.0404C1542.97 10.79 1538.28 11.0404 1530.31 10.7238C1527.42 9.54116 1532.88 8.65938 1531.48 7.07321C1524.24 6.60363 1521.45 6.89237 1516.21 7.76024C1523.09 9.20031 1514.54 11.2579 1520.91 12.3206C1518.24 12.258 1516.5 12.3779 1516.21 12.7779L1517.98 12.8891L1517.39 13.2335C1519.1 13.357 1523.46 12.9658 1523.27 13.4615C1517.1 15.4825 1530.72 15.4649 1531.48 16.8841C1526.51 16.0823 1525.5 17.5765 1520.91 17.5661C1517.29 17.3573 1519.5 16.0164 1512.69 16.4268C1509 16.8564 1515.53 17.6112 1512.69 17.7956C1511.88 17.6147 1506.14 17.286 1505.64 17.7956L1507.4 17.9104L1505.05 18.1399L1504.46 18.0217C1503.47 17.0721 1506.74 16.9468 1506.81 16.2007C1504.64 15.8616 1505.05 15.0198 1500.94 15.0598C1497.25 14.9502 1497.84 15.6755 1495.07 15.7451C1499.53 16.7956 1495.4 17.8095 1492.72 18.7104C1491.16 18.7069 1491.64 18.3105 1490.36 18.2531L1488.6 18.3694L1486.83 18.2531C1485.66 18.5557 1484.91 18.9417 1483.31 19.1643C1479.54 18.653 1472.24 19.0391 1468.04 19.1643C1463.44 18.3869 1456.39 18.0808 1456.29 16.4285C1456.62 15.9589 1461.49 16.373 1460.99 15.7451C1458.55 15.6094 1457.19 15.265 1455.11 15.0598L1453.75 15.4007C1452.97 14.9798 1452.75 14.6875 1451 14.4093L1452.76 14.1466C1451.74 13.8127 1451.01 13.425 1448.07 13.4632C1449.04 14.1067 1446.4 14.0546 1446.9 14.6042L1448.99 14.5224L1447.48 15.1729L1446.9 14.8303C1442.18 13.945 1434.67 14.9571 1428.09 14.3744C1426.76 13.8683 1426.74 13.117 1423.4 13.0057C1418.33 12.9361 1410.99 14.2893 1403.42 13.9171C1404.02 14.9572 1401.38 15.2093 1403.42 15.9693C1396.92 16.4476 1390.27 16.9625 1383.45 16.199C1375.33 17.66 1363.55 18.4182 1357.6 20.3035C1362.56 20.4044 1370.36 19.954 1370.52 20.9906C1366.02 21.601 1355.95 21.4149 1357.6 22.5854C1354.23 22.0984 1347.81 22.201 1345.85 21.4462C1345.36 22.0271 1345.76 22.9611 1343.5 23.7263C1346.45 23.9159 1347.22 24.5247 1349.37 24.8656C1359.85 24.1212 1365.61 26.483 1364.65 27.6031C1351.5 25.9212 1341.84 30.0831 1331.75 28.2882C1331.77 29.5004 1333.86 30.3092 1337.63 30.7945C1334.95 32.3319 1325.41 32.5303 1322.35 33.9878C1324.63 34.7913 1335.61 35.1911 1329.4 36.2694C1331.49 36.3964 1334.27 36.3861 1335.27 36.7253C1330.65 36.3635 1334.87 37.7132 1331.74 37.6384C1331.5 37.3845 1330.44 37.2869 1329.4 37.1843L1328.58 37.5705L1327.05 37.8679C1326.78 38.3027 1328.38 38.3723 1328.22 38.7827C1334.12 38.7845 1336.81 38.167 1342.32 38.0974L1343.75 37.7879L1345.85 37.8679C1346.71 37.247 1343.51 37.4104 1343.5 36.9565C1346.46 36.2295 1350.05 33.9686 1342.32 33.7651C1348.09 33.285 1355.09 33.0467 1358.77 32.1632L1358.19 31.8225C1359.76 31.9251 1361.32 31.9232 1362.89 31.9371L1363.47 32.1632C1365.69 32.2119 1367.44 33.4955 1364.65 33.7651C1361.21 33.8207 1361.04 33.2451 1357.6 33.3078C1354.66 33.9547 1350.42 34.3477 1350.55 35.5843C1359.28 35.226 1364.04 34.3112 1371.7 35.3565C1371.7 35.4365 1371.7 35.5095 1371.7 35.5843L1373.46 35.854C1371.2 35.974 1370.28 36.5827 1372.05 36.887L1370.52 37.1826C1371.06 37.9913 1373.13 38.501 1372.87 39.461C1368.15 39.3045 1366.16 39.6853 1362.3 39.6922C1362.69 40.4975 1365.53 40.2506 1363.47 41.0576C1359.88 41.2228 1359.19 40.8245 1356.43 40.8315C1354.87 41.7098 1349.31 41.3029 1343.5 41.7446C1344.58 41.1255 1345.37 40.6716 1342.32 40.3742C1337.85 40.042 1342.09 41.3933 1337.63 41.0576C1337.63 40.6784 1337.63 40.301 1337.63 39.9184C1333.84 39.9705 1332.65 39.5148 1328.22 39.6922L1326.85 40.0332L1324.7 39.9201C1324.64 40.2105 1323.2 40.2367 1323.53 40.6037C1320.48 40.388 1316.63 40.1862 1315.3 40.8315C1315.55 40.021 1309.79 40.3794 1310.61 39.461C1314.76 39.2297 1318.12 38.5878 1315.3 37.6365C1311.71 37.473 1311.85 38.0314 1308.25 37.8662C1308.94 36.894 1307.41 36.3618 1307.08 35.5826L1304.93 35.7009L1303.55 35.3565C1302.38 35.3565 1301.21 35.3565 1300.03 35.3565L1298.26 35.4731C1298.14 35.2835 1297.96 35.0695 1297.69 34.9599L1291.22 35.4731L1291.81 35.1287C1290.96 34.5113 1294.14 34.6695 1294.15 34.2173L1292.4 33.953L1292.99 33.5337C1290.49 33.4606 1294.66 32.8294 1295.33 32.6207C1294.85 32.2346 1293.82 32.6677 1291.81 32.6207C1291.98 32.1233 1294.77 32.1336 1297.69 32.1632L1298.26 31.8225L1300.03 31.711C1294.41 29.7509 1286.34 30.9685 1280.06 29.424C1281.9 29.0988 1280.99 28.2377 1284.76 28.2882C1288.34 28.836 1289.59 29.6223 1291.81 29.8849C1296.15 29.3145 1292.93 28.1838 1292.99 27.3734C1282.88 26.5211 1271.86 25.8481 1263.61 24.6376C1263.39 25.3541 1258.96 25.2551 1260.08 26.2343C1261.85 26.2709 1264.42 26.1508 1264.78 26.4621C1258.23 26.9056 1268.38 27.6239 1269.49 28.057C1257.43 28.1926 1255.63 26.3368 1247.17 25.7768C1243.52 25.7542 1243.81 26.4935 1238.94 26.2343C1235.54 25.1925 1228.12 25.1994 1222.49 25.5507C1217.22 24.7472 1211.48 24.0377 1209.57 22.5837C1204.58 23.029 1198.45 22.514 1193.12 22.3557C1191.52 22.8809 1191.06 23.6271 1186.07 23.4949C1185.07 22.5401 1189.25 22.5888 1190.76 22.1262C1182.1 20.5418 1168.92 19.8288 1162.57 17.7922C1143.93 17.5956 1143.36 22.1227 1122.63 20.7591C1123.6 20.4913 1124.17 20.147 1123.8 19.6165C1115.04 19.34 1115.79 17.2164 1112.05 15.9676C1112.44 15.9676 1112.83 15.9676 1113.23 15.9676L1114.75 15.6721L1116.75 15.512C1115.45 14.0893 1109.91 13.4928 1109.7 11.8597C1108.31 11.7518 1107.04 11.6197 1106.17 11.4058C1105.4 9.91699 1094.29 9.3621 1097.95 7.75854C1096.44 7.74463 1096.33 7.46469 1094.42 7.52904V7.98465C1093.4 7.76898 1091.92 7.45063 1091.29 7.2541C1090.28 7.20018 1089.18 7.17416 1087.96 7.18807L1088.55 6.84371C1076.06 6.8124 1077.09 3.80698 1063.88 4.56353C1058.77 1.72861 1033.49 3.19656 1041.55 6.6176C1037.17 7.20894 1036.18 8.46117 1033.33 9.35339C1033.7 9.66471 1035 9.78998 1034.5 10.2665C1033.57 11.2248 1028.78 11.4371 1028.63 12.5467C1035.03 12.9606 1038.74 13.8476 1046.25 13.4615C1050.32 15.0303 1056.68 16.1519 1063.88 17.1102C1066.48 16.9294 1063.65 15.6962 1068.57 15.9693C1075.6 16.658 1079.6 17.9365 1085.03 18.9348L1086.79 18.8216C1089.46 19.8721 1091.47 21.2671 1096.19 22.0149L1095.6 22.3576C1098.5 24.6795 1103.25 25.6377 1106.17 28.0604C1091.77 27.9804 1077.73 29.6639 1081.5 25.3246C1085.18 25.4307 1086.74 25.1263 1086.2 24.4098C1080.11 24.3019 1076.38 23.7332 1072.1 23.2688C1066.61 24.8567 1056.28 23.8289 1054.48 22.8132C1054.74 22.9611 1056.74 22.3211 1056.83 22.1298C1057.01 21.7576 1055.53 21.3697 1055.65 21.2184C1056.12 20.6601 1058.43 20.4218 1058 19.8496C1056.93 18.4548 1051.48 17.0442 1047.42 16.4268C1040.08 17.9939 1049.77 21.4653 1038.02 22.5871C1044.18 22.5749 1038.06 24.4325 1042.73 25.0934L1044.48 25.2099C1043.92 25.5126 1043.75 25.8168 1043.31 26.1212L1041.55 26.0082C1034.39 26.9978 1044.44 30.8657 1029.79 30.7962C1028.66 29.1926 1019.99 29.0518 1021.58 26.9177C1023.49 26.9873 1024.75 26.6116 1022.75 26.4655C1016.64 27.0343 1017.2 24.3525 1014.53 23.4985C1017.24 23.3194 1018.42 23.3071 1023.93 23.2688C1024.18 22.4357 1025.54 22.3958 1023.93 21.674C1026.76 21.7679 1026.48 21.2566 1029.79 21.4479L1029.21 21.0254L1030.97 20.7608C1031.69 19.7104 1024.89 20.1156 1023.93 19.3921L1022.17 19.2792C1023.01 19.1209 1023.72 18.8738 1024.51 18.5938L1025.1 18.9348C1027.87 18.8739 1025.81 17.9225 1023.93 18.0217C1022.98 17.2321 1025.68 17.1469 1025.1 16.4268C1022.31 15.879 1020.11 16.5504 1016.04 16.4321L1015.86 16.1816C1017.83 15.9746 1018.79 15.5675 1022.75 15.7432C1023.47 15.1953 1024.44 14.7033 1023.93 13.9171C1019.79 13.2006 1012 13.1901 1006.3 12.7779C1007.38 11.8074 1003.49 11.804 999.258 11.8614C997.408 14.0806 986.956 13.2511 980.457 14.6025C978.774 13.9224 973.742 12.9937 968.704 13.6876C968.875 13.1224 968.923 12.5832 966.348 12.5467C958.633 13.592 960.743 15.6997 955.779 16.8841C950.344 16.3345 947.264 14.9207 941.682 15.0581C941.364 13.0841 944.018 12.1206 945.215 10.0387L944.62 9.69435L946.376 9.58289C941.588 8.96373 934.421 9.83683 928.757 9.809C924.772 9.3655 921.687 8.74815 920.531 7.75854C923.777 7.62636 927.122 7.51504 926.412 6.6176C919.924 6.96545 916.692 6.54109 909.957 6.84371C905.774 7.90985 903.543 9.59694 893.511 8.89778C893.871 9.50129 891.058 9.48724 888.813 9.58289C884.032 9.29244 879.703 8.91691 873.537 8.89778C868.515 9.06474 868.453 10.1917 865.313 10.7221C859.481 10.663 857.492 10.2074 850.045 10.0387C849.896 11.0022 845.794 11.1935 844.169 11.8614C848.602 12.8545 851.328 14.7798 861.789 13.9171C865.619 14.3137 869.437 14.7119 871.191 15.5154C867.653 15.7397 865.95 16.3225 860.614 16.2007C861.591 18.2895 852.489 18.4218 842.992 18.4809C842.477 17.9504 837.805 17.8704 840.642 17.3416C836.741 17.413 833.409 17.3748 832.416 16.886L830.651 16.999L828.89 16.886C828.389 17.2426 825.197 17.0824 826.542 17.7973C823.45 17.5625 818.873 17.6111 819.489 16.658C822.048 17.3763 827.765 16.1554 828.89 16.658L830.651 16.5417L832.416 16.658C835.171 16.1171 838.189 16.6945 841.813 16.658C844.081 15.851 841.428 15.4076 839.467 14.832C833.437 15.0163 831.763 14.352 826.542 14.3764C825.264 15.3434 817.319 15.018 811.267 15.0615L811.856 15.4024L810.089 15.2893C809.231 15.9137 812.427 15.7485 812.438 16.2024L814.203 16.0878L811.856 16.7712L811.267 16.4285C808.964 16.0407 804 16.166 801.869 15.7451L799.717 15.858L798.347 15.5154C797.161 15.5154 796.943 15.698 795.995 15.7432L796.584 16.1608L794.827 16.4268C800.609 19.4548 826.917 17.6077 832.417 20.3052C829.908 20.8044 826.713 21.1766 820.671 20.9923C819.385 20.5262 817.696 19.5382 814.796 20.0791C811.826 20.5087 815.879 20.8757 813.619 21.4479C805.872 21.1592 805.656 22.3296 803.042 23.0427C804.262 23.5662 811.435 22.935 812.44 23.4985C812.449 23.7281 811.493 23.7698 811.268 23.9542H812.44V24.1837C812.355 24.2532 812.555 24.3402 812.44 24.4098C809.928 25.989 798.593 26.6535 795.997 27.3753C795.359 26.57 800.152 26.8152 799.518 26.0082C796.432 25.7752 795.561 25.1038 792.473 24.8673C791.811 25.1977 790.634 25.4221 788.951 25.5543C789.4 24.3229 781.965 24.6238 781.895 23.4985C775.279 24.8551 780.997 26.723 786.597 27.6048C784.979 27.897 785.433 28.5926 785.425 29.2013C783.399 29.1874 782.41 29.377 781.895 29.6605H783.07V29.8866C783.065 30.1127 784.022 30.1579 784.247 30.3406C778.144 30.6588 776.428 32.5894 777.199 33.5356C775.491 33.659 771.131 33.2676 771.318 33.7668L773.085 33.8763L769.556 33.9912L770.148 33.7668C768.557 33.692 767.906 33.4399 765.444 33.5356C765.255 32.892 763.296 32.5858 763.097 31.9388C768.145 31.3214 766.842 29.4709 774.845 29.4274C775.794 28.6396 773.095 28.5526 773.667 27.8343L771.911 27.9438L772.497 27.6048C771.562 26.7978 766.618 26.7665 765.444 26.0082C762.52 26.2013 759.154 26.3056 754.871 26.2377C747.605 25.0098 750.351 23.5089 750.176 21.674L748.408 21.561C750.84 21.3071 753.211 21.2149 754.284 20.6462L754.873 20.9923C757.092 20.9644 755.693 20.2374 758.4 20.3052L760.161 20.1904L761.922 20.0791C761.308 19.7382 760.183 19.5034 759.577 19.1643C755.988 18.9991 755.291 19.3992 752.53 19.394C748.896 18.0618 738.317 18.8131 734.906 17.1121C734.54 16.5869 738.297 16.8581 738.428 16.4268C733.651 15.8337 733.354 14.3694 729.027 13.6876L728.445 14.032L726.675 13.9171C721.592 13.6093 719.222 13.811 713.75 13.9171C713.75 12.9275 713.75 11.9414 713.75 10.9535C704.8 10.6318 708.911 12.2543 709.051 13.2335C707.663 13.3448 706.394 13.4772 705.529 13.6876L707.29 13.9554L706.701 14.3744C707.097 14.3744 707.481 14.3744 707.872 14.3744C708.523 14.7066 706.506 15.5536 709.049 15.5154C709.617 15.2458 710.302 14.999 711.398 14.8303C712.81 15.7764 718.842 15.8199 719.624 16.886C713.925 17.3869 718.567 18.4929 716.102 19.6199C719.817 19.5851 720.024 20.227 724.323 20.0791C727.377 19.987 727.864 19.3975 731.375 19.394C734.411 20.0184 738.221 20.4949 743.123 20.7628L742.538 20.4184L744.295 21.1035L743.122 20.9923C742.424 21.4636 740.862 21.7679 738.423 21.9018L737.049 22.2444L734.899 22.1298C733.972 23.4707 730.09 24.2412 729.021 25.5543C735.476 25.6656 734.067 24.2516 741.948 24.6412C741.683 25.0708 743.267 25.1421 743.12 25.5543C737.527 26.1891 728.48 28.1839 738.421 29.2013L739.014 28.8587L740.773 28.7423C740.773 28.5927 740.773 28.4397 740.773 28.2901C741.553 28.2901 742.336 28.2901 743.12 28.2901C743.12 28.4397 743.12 28.5927 743.12 28.7423C742.729 28.7423 742.336 28.7423 741.948 28.7423L742.534 29.0884L740.773 29.2013C740.773 29.2761 740.773 29.3544 740.773 29.4257C738.435 29.4327 739.272 30.0501 736.069 29.8866C730.404 28.3231 725.521 26.6117 713.743 26.2377C715.429 25.2446 721.01 26.1716 723.146 26.4655C725.031 24.4254 718.967 23.9281 716.097 22.8132C712.414 23.0863 708.708 23.3577 704.343 23.4985C699.728 23.2255 700.995 22.321 694.946 22.8132C692.843 24.2098 699.736 23.8603 699.644 24.8673C697.202 25.0012 695.841 25.3456 693.769 25.5543C691.533 23.5438 676.75 20.9783 687.898 19.1643C687.898 19.3174 687.898 19.4703 687.898 19.6199L689.657 19.7348L690.243 20.0791C691.425 20.0791 691.64 19.8913 692.595 19.8513C695.666 20.0879 696.721 20.7228 700.821 20.7628C707.536 20.4671 708.304 19.02 714.918 18.7104C711.362 18.3643 715.895 17.7087 714.918 17.1138C709.405 17.2721 710.587 16.1329 706.695 15.9729C707.888 16.8982 707.555 17.8617 704.345 18.4826C700.184 17.213 699.167 17.9087 692.595 18.2548C691.588 17.5243 694.445 17.5486 694.947 17.1138C691.342 16.9017 689.208 16.4024 685.548 16.2024C684.696 15.5032 687.576 15.5311 686.725 14.832C680.398 14.2354 669.547 14.5171 665.574 13.4649C667.798 13.4371 666.391 12.7085 669.101 12.7815L668.512 12.3622L670.273 12.0962C669.145 11.0335 662.192 11.7587 657.351 11.8648C656.109 10.9673 650.029 11.3709 645.603 10.9552C643.501 10.7587 641.754 10.0612 639.729 10.0421C638.995 10.0352 634.103 10.9483 633.848 10.9552C631.825 11.0266 628.962 10.5308 625.625 10.496C618.403 10.4334 614.161 9.53613 608.005 8.21606C603.326 8.34129 604.474 8.34129 599.779 8.21606C599.17 7.87865 598.039 7.64556 597.432 7.30293C590.42 7.5899 584.583 6.7238 580.977 7.07512C582.702 7.77255 581.297 8.26636 579.801 8.90118C586.051 9.59164 589.277 10.863 595.082 11.6387C593.381 12.9813 601.133 14.3154 596.252 14.832C588.78 13.4371 577.897 13.8997 564.533 13.9188C563.163 15.0215 557.645 15.3206 556.313 16.4285C554.589 16.4303 552.585 15.4667 552.78 16.4285C552.66 17.5173 557.319 17.679 557.484 18.7104C556.02 19.7157 550.504 19.9382 546.909 20.533C544.681 22.1557 541.637 23.6133 536.33 24.6395C534.091 24.3108 532.965 23.7716 529.287 23.7263C525.719 23.7194 528.149 24.8725 524.59 24.8656C524.452 24.683 520.702 24.1734 521.056 24.6395C523.824 24.643 520.635 25.2621 518.713 25.0934C515.196 24.4099 513.929 23.2862 508.138 23.0427C508.117 23.7228 505.085 23.8184 504.613 24.4098L506.374 24.6777L505.795 25.0934C511.848 25.2099 506.565 27.5283 514.016 27.3753C511.763 26.57 515.166 26.2761 517.534 25.7804C517.741 27.1822 519.688 28.2536 524.594 28.7423C522.628 30.7998 530.859 30.8728 530.459 32.6207C530.243 33.2625 526.631 33.245 525.76 33.7651C530.93 33.9755 532.126 34.96 531.634 36.2713C537.094 36.5096 535.091 38.1845 539.862 38.5549C545.902 38.0645 549.221 37.7043 557.488 38.0974C552.982 36.9182 561.294 37.061 556.316 36.0435C558.551 35.487 561.891 35.1477 565.714 34.9007C569.673 35.579 576.43 35.7112 577.463 36.9565C576.57 37.3165 573.731 37.2992 573.935 37.8679C575.565 40.8646 561.248 39.5583 552.783 39.2383C550.033 39.8418 545.402 40.0836 542.209 40.6054L542.8 40.9463C541.384 40.602 539.65 40.6453 537.889 40.7166L531.939 40.4368L530.459 40.1515C529.077 40.0402 527.801 39.908 526.935 39.6959C528.364 38.7549 532.275 38.2941 532.816 37.1862C525.171 37.0523 521.982 38.5914 515.187 39.0088C514.115 39.0749 513.264 38.7705 511.669 38.7844C509.719 38.7983 507.069 39.2192 505.795 39.24C498.082 39.3513 493.042 39.0766 489.346 38.5566C490.021 37.8157 488.541 37.494 488.166 36.9601C482.265 37.5497 475.367 37.273 470.542 36.5042L468.776 36.2365L469.365 35.8174C466.047 35.6313 466.323 36.1426 463.489 36.0469C459.465 35.1234 448.94 35.7617 442.344 34.9043C440.859 32.7355 441.666 29.304 427.07 30.7998C421.106 29.4032 402.748 28.7804 401.222 26.6933C400.516 25.7246 404.608 24.855 407.091 23.7314C405.947 24.608 410.149 23.9525 411.795 24.1873C415.156 24.6569 416.211 25.8117 418.849 26.4691C423.973 25.8587 426.863 27.0361 430.599 26.4691L428.833 26.2411L430.599 26.0116C428.973 25.7194 429.435 25.0204 429.424 24.4134L428.833 24.069L429.424 23.7297C426.33 23.1871 422.341 22.8237 421.196 21.9037C423.171 20.3106 429.203 19.5052 430.599 17.7973L428.833 17.9121L428.254 17.5695C424.654 17.4042 423.962 17.8025 421.194 17.7973C419.642 17.4303 418.655 15.7868 422.369 15.7451C427.967 16.5486 429.496 14.9398 435.291 15.0598C435.291 15.2876 436.245 15.331 436.471 15.5154C435.493 16.0858 433.254 16.413 432.944 17.1121C435.747 17.6078 440.13 18.0478 444.69 17.5678C446.278 16.8025 444.058 16.3625 445.871 15.9712C449.157 16.093 451.975 16.3068 455.269 16.4285C455.667 15.6702 459.716 15.6215 461.143 15.0598C455.428 15.2772 452.548 14.7989 444.69 15.0598C441.351 13.9571 439.848 12.4978 435.289 11.6387C426.398 12.3726 414.156 11.6996 407.089 10.496C401.048 10.4647 402.909 11.9675 398.868 12.3223C394.743 10.3778 402.994 8.86989 405.919 7.53243C403.831 7.40721 401.038 7.41601 400.043 7.07512C402.268 6.13943 406.737 5.6384 405.919 4.10962C403.086 4.01744 403.367 4.52526 400.043 4.33743C399.976 4.20003 399.872 4.06788 398.868 4.10962L397.695 4.22448L396.52 4.10962C396.564 5.4123 397.509 6.89232 389.469 6.621C388.973 7.40017 392.991 7.30626 394.167 7.76194C396.155 9.13244 392.5 10.9778 387.125 11.6387C388.612 12.0335 391.095 12.2334 390.646 13.0074C389.987 13.564 389.64 14.1814 385.941 14.1466C382.756 12.6996 369.277 12.4509 361.272 13.2335C359.576 13.9675 357.867 14.7016 353.049 14.8303C349.648 13.9989 343.312 12.6806 335.427 13.4632L336.018 13.884L334.25 14.1483C334.162 14.5449 334.516 14.858 335.429 15.0615C333.337 15.2632 332.443 15.6982 328.375 15.5173C325.58 16.0373 326.208 17.2251 321.329 17.3433C316.466 16.4616 309.958 15.8997 303.709 15.2893C301.896 14.044 297.164 13.3675 294.306 12.324L292.931 12.6683L290.779 12.5518C290.028 14.3188 278.912 14.9936 273.155 15.0632C276.733 15.8145 278.438 16.9277 277.855 18.4843L279.62 18.373L279.025 18.7138C281.002 19.2442 289.556 18.493 288.428 19.6235C283.89 19.6583 283.005 20.3939 277.855 20.3086C265.063 18.5364 249.618 20.1088 240.259 21.4515C240.822 22.7072 241.303 23.9838 246.133 24.4134C250.568 23.9229 246.93 23.0845 246.133 22.3627C248.195 22.1557 248.069 21.5228 250.834 21.4515C254.65 21.3176 256.295 21.6028 259.051 21.6776C260.233 21.3732 260.991 20.9871 262.575 20.7645C269.235 21.0306 273.767 22.9557 268.449 24.1854L270.22 24.2985C268.53 24.4603 267.815 24.5577 266.693 24.9838L267.277 24.6429C265.714 24.6429 264.146 24.6429 262.577 24.6429C261.255 25.589 260.672 26.3299 254.359 25.7838C251.42 27.1282 258.6 29.6014 266.107 28.2935C268.879 28.5892 271.098 28.9943 273.155 29.4291C271.066 31.7231 244.723 33.2032 243.785 29.89C229.624 31.2379 218.563 27.6692 205.012 28.064C201.168 28.177 201.008 29.0204 195.614 28.9769C194.377 30.4274 187.563 31.5806 183.861 33.3112C182.804 33.8051 183.705 34.6294 182.687 35.1338C181.878 35.5373 177.753 36.0868 176.813 36.7304C174.111 38.5809 168.596 39.0435 165.06 40.381C163.957 40.8019 164.786 41.2784 163.89 41.5219C158.434 43.002 148.397 43.0716 138.042 42.6628C139.339 41.395 142.84 40.5515 147.445 39.9254C147.794 39.0071 149.179 38.2853 154.496 38.3305C154.468 38.8662 156.515 39.0018 155.666 39.6993C158.995 39.7358 160.568 40.1166 163.892 40.1549C165.584 38.9652 170.729 38.4402 169.762 36.7323C171.387 36.7444 172.351 36.6279 173.289 36.5062C174.654 35.7079 173.932 35.0398 174.466 34.2224C176.358 31.3144 190.773 29.231 199.138 27.1509C201.776 26.4952 201.279 25.5665 206.19 25.3282C207.778 25.3978 208.431 25.6516 210.884 25.5577C216.108 24.2898 217.643 22.3036 228.508 22.1332C232.357 21.0427 229.934 20.0218 237.911 19.6235C237.911 19.0913 237.911 18.559 237.911 18.0251C232.697 18.2042 233.18 17.2686 230.858 16.8877C224.096 16.7138 221.243 17.2981 219.112 18.0251C208.302 19.126 196.855 18.8148 182.691 18.4826C177.498 19.7557 171.035 20.7819 165.062 21.9037C161.713 21.568 157.292 21.4375 154.498 20.994C159.257 20.2391 151.797 18.387 160.37 18.2548C160.432 18.3904 160.542 18.5261 161.54 18.4826L163.302 18.3713L162.718 18.7121C165.812 18.7817 166.568 18.3955 166.242 17.799L164.479 17.9138L165.06 17.5711C163.748 16.8372 160.938 16.3954 156.843 16.2041C153.931 16.6285 151.956 17.2303 148.617 17.5711C148.788 20.4461 136.035 22.0983 123.94 21.2218C123.328 21.5557 122.206 21.7975 121.59 22.1332L122.184 22.4776L121.59 22.8185C124.768 23.6725 117.995 24.5472 113.372 24.6446C105.991 25.7959 100.403 27.2951 92.2197 28.2952C90.9365 29.9683 93.0798 31.1545 91.041 32.398C89.1349 33.5755 83.1051 34.2955 81.6433 35.3616C80.684 36.0695 84.2838 36.8052 80.4716 37.4174C82.6998 37.7496 86.0607 38.5445 82.8184 39.2419C83.8113 39.8315 87.9721 38.8037 89.8693 39.4681C87.335 40.3585 82.3512 40.8889 85.1705 42.2055C80.2964 42.4682 80.592 41.7255 76.9497 41.7516C76.9497 41.4455 76.9497 41.1429 76.9497 40.8385C67.5573 38.3827 59.9347 34.6939 60.4993 31.0276C62.9363 30.8971 64.5044 30.5911 65.1999 30.1198C72.1305 30.7302 79.8115 30.0622 78.1178 28.2969C80.1708 28.0847 84.4307 28.304 83.9936 27.6118C87.6146 27.4396 86.2536 28.2378 89.8693 28.0674C92.5418 27.523 94.193 26.7768 95.7451 26.015C107.153 25.6463 107.948 23.2168 119.246 22.8202L118.652 22.4793L118.071 22.1349C116.211 21.5088 114.07 20.9349 111.02 20.5383C108.918 20.8131 104.184 20.5802 102.793 20.9976C104.106 21.0306 106.221 20.9539 106.316 21.2235C107.095 23.2462 79.6133 22.5297 83.9918 25.7855C80.038 26.6882 75.9179 27.5596 68.7218 27.8396C63.8088 27.65 62.4443 26.7751 61.6709 25.7855C46.9567 25.5125 37.8085 26.3229 29.9488 27.3804C29.57 26.8464 24.8216 27.1614 24.0659 26.6952C32.7734 25.9543 40.9287 25.1038 44.0418 23.2741L42.2808 23.0079L42.872 22.5924C37.0174 22.7455 34.7821 23.502 29.9488 23.7334C24.9632 23.9699 19.2839 23.476 14.6717 23.9595C0.0106123 25.5056 5.12007 28.8814 0 31.2259L0 73H213.229H219.106C219.498 73 219.889 73 220.282 73L286.037 73H300.134H379.908H436.277H452.89H457.621H466.353H469.915H565.715L1117.87 73H1120.92L1916 73V11.1083C1910.02 10.5274 1904.47 9.86135 1900.42 8.90478C1878.72 9.53438 1874.93 6.70103 1867.52 4.56353Z" fill="white" fill-opacity="0.1"/>
</svg>
